G04 #@! TF.GenerationSoftware,KiCad,Pcbnew,7.0.10*
G04 #@! TF.CreationDate,2024-02-09T18:03:28-08:00*
G04 #@! TF.ProjectId,4x3,3478332e-6b69-4636-9164-5f7063625858,rev?*
G04 #@! TF.SameCoordinates,Original*
G04 #@! TF.FileFunction,Legend,Top*
G04 #@! TF.FilePolarity,Positive*
%FSLAX46Y46*%
G04 Gerber Fmt 4.6, Leading zero omitted, Abs format (unit mm)*
G04 Created by KiCad (PCBNEW 7.0.10) date 2024-02-09 18:03:28*
%MOMM*%
%LPD*%
G01*
G04 APERTURE LIST*
%ADD10C,0.150000*%
%ADD11C,0.120000*%
G04 APERTURE END LIST*
D10*
X233424819Y-157563333D02*
X232948628Y-157896666D01*
X233424819Y-158134761D02*
X232424819Y-158134761D01*
X232424819Y-158134761D02*
X232424819Y-157753809D01*
X232424819Y-157753809D02*
X232472438Y-157658571D01*
X232472438Y-157658571D02*
X232520057Y-157610952D01*
X232520057Y-157610952D02*
X232615295Y-157563333D01*
X232615295Y-157563333D02*
X232758152Y-157563333D01*
X232758152Y-157563333D02*
X232853390Y-157610952D01*
X232853390Y-157610952D02*
X232901009Y-157658571D01*
X232901009Y-157658571D02*
X232948628Y-157753809D01*
X232948628Y-157753809D02*
X232948628Y-158134761D01*
X232901009Y-157134761D02*
X232901009Y-156801428D01*
X233424819Y-156658571D02*
X233424819Y-157134761D01*
X233424819Y-157134761D02*
X232424819Y-157134761D01*
X232424819Y-157134761D02*
X232424819Y-156658571D01*
X232901009Y-155896666D02*
X232901009Y-156229999D01*
X233424819Y-156229999D02*
X232424819Y-156229999D01*
X232424819Y-156229999D02*
X232424819Y-155753809D01*
X232424819Y-155229999D02*
X232662914Y-155229999D01*
X232567676Y-155468094D02*
X232662914Y-155229999D01*
X232662914Y-155229999D02*
X232567676Y-154991904D01*
X232853390Y-155372856D02*
X232662914Y-155229999D01*
X232662914Y-155229999D02*
X232853390Y-155087142D01*
X232424819Y-154468094D02*
X232662914Y-154468094D01*
X232567676Y-154706189D02*
X232662914Y-154468094D01*
X232662914Y-154468094D02*
X232567676Y-154229999D01*
X232853390Y-154610951D02*
X232662914Y-154468094D01*
X232662914Y-154468094D02*
X232853390Y-154325237D01*
X162221905Y-144210819D02*
X162221905Y-143210819D01*
X162793333Y-144210819D02*
X162364762Y-143639390D01*
X162793333Y-143210819D02*
X162221905Y-143782247D01*
X163364762Y-143639390D02*
X163269524Y-143591771D01*
X163269524Y-143591771D02*
X163221905Y-143544152D01*
X163221905Y-143544152D02*
X163174286Y-143448914D01*
X163174286Y-143448914D02*
X163174286Y-143401295D01*
X163174286Y-143401295D02*
X163221905Y-143306057D01*
X163221905Y-143306057D02*
X163269524Y-143258438D01*
X163269524Y-143258438D02*
X163364762Y-143210819D01*
X163364762Y-143210819D02*
X163555238Y-143210819D01*
X163555238Y-143210819D02*
X163650476Y-143258438D01*
X163650476Y-143258438D02*
X163698095Y-143306057D01*
X163698095Y-143306057D02*
X163745714Y-143401295D01*
X163745714Y-143401295D02*
X163745714Y-143448914D01*
X163745714Y-143448914D02*
X163698095Y-143544152D01*
X163698095Y-143544152D02*
X163650476Y-143591771D01*
X163650476Y-143591771D02*
X163555238Y-143639390D01*
X163555238Y-143639390D02*
X163364762Y-143639390D01*
X163364762Y-143639390D02*
X163269524Y-143687009D01*
X163269524Y-143687009D02*
X163221905Y-143734628D01*
X163221905Y-143734628D02*
X163174286Y-143829866D01*
X163174286Y-143829866D02*
X163174286Y-144020342D01*
X163174286Y-144020342D02*
X163221905Y-144115580D01*
X163221905Y-144115580D02*
X163269524Y-144163200D01*
X163269524Y-144163200D02*
X163364762Y-144210819D01*
X163364762Y-144210819D02*
X163555238Y-144210819D01*
X163555238Y-144210819D02*
X163650476Y-144163200D01*
X163650476Y-144163200D02*
X163698095Y-144115580D01*
X163698095Y-144115580D02*
X163745714Y-144020342D01*
X163745714Y-144020342D02*
X163745714Y-143829866D01*
X163745714Y-143829866D02*
X163698095Y-143734628D01*
X163698095Y-143734628D02*
X163650476Y-143687009D01*
X163650476Y-143687009D02*
X163555238Y-143639390D01*
X250538095Y-160454819D02*
X250538095Y-159454819D01*
X250538095Y-159931009D02*
X251109523Y-159931009D01*
X251109523Y-160454819D02*
X251109523Y-159454819D01*
X252014285Y-159788152D02*
X252014285Y-160454819D01*
X251776190Y-159407200D02*
X251538095Y-160121485D01*
X251538095Y-160121485D02*
X252157142Y-160121485D01*
X150138095Y-160454819D02*
X150138095Y-159454819D01*
X150138095Y-159931009D02*
X150709523Y-159931009D01*
X150709523Y-160454819D02*
X150709523Y-159454819D01*
X151090476Y-159454819D02*
X151709523Y-159454819D01*
X151709523Y-159454819D02*
X151376190Y-159835771D01*
X151376190Y-159835771D02*
X151519047Y-159835771D01*
X151519047Y-159835771D02*
X151614285Y-159883390D01*
X151614285Y-159883390D02*
X151661904Y-159931009D01*
X151661904Y-159931009D02*
X151709523Y-160026247D01*
X151709523Y-160026247D02*
X151709523Y-160264342D01*
X151709523Y-160264342D02*
X151661904Y-160359580D01*
X151661904Y-160359580D02*
X151614285Y-160407200D01*
X151614285Y-160407200D02*
X151519047Y-160454819D01*
X151519047Y-160454819D02*
X151233333Y-160454819D01*
X151233333Y-160454819D02*
X151138095Y-160407200D01*
X151138095Y-160407200D02*
X151090476Y-160359580D01*
X162221905Y-106110819D02*
X162221905Y-105110819D01*
X162793333Y-106110819D02*
X162364762Y-105539390D01*
X162793333Y-105110819D02*
X162221905Y-105682247D01*
X163412381Y-105110819D02*
X163507619Y-105110819D01*
X163507619Y-105110819D02*
X163602857Y-105158438D01*
X163602857Y-105158438D02*
X163650476Y-105206057D01*
X163650476Y-105206057D02*
X163698095Y-105301295D01*
X163698095Y-105301295D02*
X163745714Y-105491771D01*
X163745714Y-105491771D02*
X163745714Y-105729866D01*
X163745714Y-105729866D02*
X163698095Y-105920342D01*
X163698095Y-105920342D02*
X163650476Y-106015580D01*
X163650476Y-106015580D02*
X163602857Y-106063200D01*
X163602857Y-106063200D02*
X163507619Y-106110819D01*
X163507619Y-106110819D02*
X163412381Y-106110819D01*
X163412381Y-106110819D02*
X163317143Y-106063200D01*
X163317143Y-106063200D02*
X163269524Y-106015580D01*
X163269524Y-106015580D02*
X163221905Y-105920342D01*
X163221905Y-105920342D02*
X163174286Y-105729866D01*
X163174286Y-105729866D02*
X163174286Y-105491771D01*
X163174286Y-105491771D02*
X163221905Y-105301295D01*
X163221905Y-105301295D02*
X163269524Y-105206057D01*
X163269524Y-105206057D02*
X163317143Y-105158438D01*
X163317143Y-105158438D02*
X163412381Y-105110819D01*
X219371905Y-125160819D02*
X219371905Y-124160819D01*
X219943333Y-125160819D02*
X219514762Y-124589390D01*
X219943333Y-124160819D02*
X219371905Y-124732247D01*
X220276667Y-124160819D02*
X220943333Y-124160819D01*
X220943333Y-124160819D02*
X220514762Y-125160819D01*
X219371905Y-106110819D02*
X219371905Y-105110819D01*
X219943333Y-106110819D02*
X219514762Y-105539390D01*
X219943333Y-105110819D02*
X219371905Y-105682247D01*
X220276667Y-105110819D02*
X220895714Y-105110819D01*
X220895714Y-105110819D02*
X220562381Y-105491771D01*
X220562381Y-105491771D02*
X220705238Y-105491771D01*
X220705238Y-105491771D02*
X220800476Y-105539390D01*
X220800476Y-105539390D02*
X220848095Y-105587009D01*
X220848095Y-105587009D02*
X220895714Y-105682247D01*
X220895714Y-105682247D02*
X220895714Y-105920342D01*
X220895714Y-105920342D02*
X220848095Y-106015580D01*
X220848095Y-106015580D02*
X220800476Y-106063200D01*
X220800476Y-106063200D02*
X220705238Y-106110819D01*
X220705238Y-106110819D02*
X220419524Y-106110819D01*
X220419524Y-106110819D02*
X220324286Y-106063200D01*
X220324286Y-106063200D02*
X220276667Y-106015580D01*
X181271905Y-125160819D02*
X181271905Y-124160819D01*
X181843333Y-125160819D02*
X181414762Y-124589390D01*
X181843333Y-124160819D02*
X181271905Y-124732247D01*
X182748095Y-124160819D02*
X182271905Y-124160819D01*
X182271905Y-124160819D02*
X182224286Y-124637009D01*
X182224286Y-124637009D02*
X182271905Y-124589390D01*
X182271905Y-124589390D02*
X182367143Y-124541771D01*
X182367143Y-124541771D02*
X182605238Y-124541771D01*
X182605238Y-124541771D02*
X182700476Y-124589390D01*
X182700476Y-124589390D02*
X182748095Y-124637009D01*
X182748095Y-124637009D02*
X182795714Y-124732247D01*
X182795714Y-124732247D02*
X182795714Y-124970342D01*
X182795714Y-124970342D02*
X182748095Y-125065580D01*
X182748095Y-125065580D02*
X182700476Y-125113200D01*
X182700476Y-125113200D02*
X182605238Y-125160819D01*
X182605238Y-125160819D02*
X182367143Y-125160819D01*
X182367143Y-125160819D02*
X182271905Y-125113200D01*
X182271905Y-125113200D02*
X182224286Y-125065580D01*
X200321905Y-106110819D02*
X200321905Y-105110819D01*
X200893333Y-106110819D02*
X200464762Y-105539390D01*
X200893333Y-105110819D02*
X200321905Y-105682247D01*
X201274286Y-105206057D02*
X201321905Y-105158438D01*
X201321905Y-105158438D02*
X201417143Y-105110819D01*
X201417143Y-105110819D02*
X201655238Y-105110819D01*
X201655238Y-105110819D02*
X201750476Y-105158438D01*
X201750476Y-105158438D02*
X201798095Y-105206057D01*
X201798095Y-105206057D02*
X201845714Y-105301295D01*
X201845714Y-105301295D02*
X201845714Y-105396533D01*
X201845714Y-105396533D02*
X201798095Y-105539390D01*
X201798095Y-105539390D02*
X201226667Y-106110819D01*
X201226667Y-106110819D02*
X201845714Y-106110819D01*
X218895714Y-144210819D02*
X218895714Y-143210819D01*
X219467142Y-144210819D02*
X219038571Y-143639390D01*
X219467142Y-143210819D02*
X218895714Y-143782247D01*
X220419523Y-144210819D02*
X219848095Y-144210819D01*
X220133809Y-144210819D02*
X220133809Y-143210819D01*
X220133809Y-143210819D02*
X220038571Y-143353676D01*
X220038571Y-143353676D02*
X219943333Y-143448914D01*
X219943333Y-143448914D02*
X219848095Y-143496533D01*
X221371904Y-144210819D02*
X220800476Y-144210819D01*
X221086190Y-144210819D02*
X221086190Y-143210819D01*
X221086190Y-143210819D02*
X220990952Y-143353676D01*
X220990952Y-143353676D02*
X220895714Y-143448914D01*
X220895714Y-143448914D02*
X220800476Y-143496533D01*
X181271905Y-144210819D02*
X181271905Y-143210819D01*
X181843333Y-144210819D02*
X181414762Y-143639390D01*
X181843333Y-143210819D02*
X181271905Y-143782247D01*
X182319524Y-144210819D02*
X182510000Y-144210819D01*
X182510000Y-144210819D02*
X182605238Y-144163200D01*
X182605238Y-144163200D02*
X182652857Y-144115580D01*
X182652857Y-144115580D02*
X182748095Y-143972723D01*
X182748095Y-143972723D02*
X182795714Y-143782247D01*
X182795714Y-143782247D02*
X182795714Y-143401295D01*
X182795714Y-143401295D02*
X182748095Y-143306057D01*
X182748095Y-143306057D02*
X182700476Y-143258438D01*
X182700476Y-143258438D02*
X182605238Y-143210819D01*
X182605238Y-143210819D02*
X182414762Y-143210819D01*
X182414762Y-143210819D02*
X182319524Y-143258438D01*
X182319524Y-143258438D02*
X182271905Y-143306057D01*
X182271905Y-143306057D02*
X182224286Y-143401295D01*
X182224286Y-143401295D02*
X182224286Y-143639390D01*
X182224286Y-143639390D02*
X182271905Y-143734628D01*
X182271905Y-143734628D02*
X182319524Y-143782247D01*
X182319524Y-143782247D02*
X182414762Y-143829866D01*
X182414762Y-143829866D02*
X182605238Y-143829866D01*
X182605238Y-143829866D02*
X182700476Y-143782247D01*
X182700476Y-143782247D02*
X182748095Y-143734628D01*
X182748095Y-143734628D02*
X182795714Y-143639390D01*
X200321905Y-125160819D02*
X200321905Y-124160819D01*
X200893333Y-125160819D02*
X200464762Y-124589390D01*
X200893333Y-124160819D02*
X200321905Y-124732247D01*
X201750476Y-124160819D02*
X201560000Y-124160819D01*
X201560000Y-124160819D02*
X201464762Y-124208438D01*
X201464762Y-124208438D02*
X201417143Y-124256057D01*
X201417143Y-124256057D02*
X201321905Y-124398914D01*
X201321905Y-124398914D02*
X201274286Y-124589390D01*
X201274286Y-124589390D02*
X201274286Y-124970342D01*
X201274286Y-124970342D02*
X201321905Y-125065580D01*
X201321905Y-125065580D02*
X201369524Y-125113200D01*
X201369524Y-125113200D02*
X201464762Y-125160819D01*
X201464762Y-125160819D02*
X201655238Y-125160819D01*
X201655238Y-125160819D02*
X201750476Y-125113200D01*
X201750476Y-125113200D02*
X201798095Y-125065580D01*
X201798095Y-125065580D02*
X201845714Y-124970342D01*
X201845714Y-124970342D02*
X201845714Y-124732247D01*
X201845714Y-124732247D02*
X201798095Y-124637009D01*
X201798095Y-124637009D02*
X201750476Y-124589390D01*
X201750476Y-124589390D02*
X201655238Y-124541771D01*
X201655238Y-124541771D02*
X201464762Y-124541771D01*
X201464762Y-124541771D02*
X201369524Y-124589390D01*
X201369524Y-124589390D02*
X201321905Y-124637009D01*
X201321905Y-124637009D02*
X201274286Y-124732247D01*
X199845714Y-144210819D02*
X199845714Y-143210819D01*
X200417142Y-144210819D02*
X199988571Y-143639390D01*
X200417142Y-143210819D02*
X199845714Y-143782247D01*
X201369523Y-144210819D02*
X200798095Y-144210819D01*
X201083809Y-144210819D02*
X201083809Y-143210819D01*
X201083809Y-143210819D02*
X200988571Y-143353676D01*
X200988571Y-143353676D02*
X200893333Y-143448914D01*
X200893333Y-143448914D02*
X200798095Y-143496533D01*
X201988571Y-143210819D02*
X202083809Y-143210819D01*
X202083809Y-143210819D02*
X202179047Y-143258438D01*
X202179047Y-143258438D02*
X202226666Y-143306057D01*
X202226666Y-143306057D02*
X202274285Y-143401295D01*
X202274285Y-143401295D02*
X202321904Y-143591771D01*
X202321904Y-143591771D02*
X202321904Y-143829866D01*
X202321904Y-143829866D02*
X202274285Y-144020342D01*
X202274285Y-144020342D02*
X202226666Y-144115580D01*
X202226666Y-144115580D02*
X202179047Y-144163200D01*
X202179047Y-144163200D02*
X202083809Y-144210819D01*
X202083809Y-144210819D02*
X201988571Y-144210819D01*
X201988571Y-144210819D02*
X201893333Y-144163200D01*
X201893333Y-144163200D02*
X201845714Y-144115580D01*
X201845714Y-144115580D02*
X201798095Y-144020342D01*
X201798095Y-144020342D02*
X201750476Y-143829866D01*
X201750476Y-143829866D02*
X201750476Y-143591771D01*
X201750476Y-143591771D02*
X201798095Y-143401295D01*
X201798095Y-143401295D02*
X201845714Y-143306057D01*
X201845714Y-143306057D02*
X201893333Y-143258438D01*
X201893333Y-143258438D02*
X201988571Y-143210819D01*
X162221905Y-125160819D02*
X162221905Y-124160819D01*
X162793333Y-125160819D02*
X162364762Y-124589390D01*
X162793333Y-124160819D02*
X162221905Y-124732247D01*
X163650476Y-124494152D02*
X163650476Y-125160819D01*
X163412381Y-124113200D02*
X163174286Y-124827485D01*
X163174286Y-124827485D02*
X163793333Y-124827485D01*
X181271905Y-106110819D02*
X181271905Y-105110819D01*
X181843333Y-106110819D02*
X181414762Y-105539390D01*
X181843333Y-105110819D02*
X181271905Y-105682247D01*
X182795714Y-106110819D02*
X182224286Y-106110819D01*
X182510000Y-106110819D02*
X182510000Y-105110819D01*
X182510000Y-105110819D02*
X182414762Y-105253676D01*
X182414762Y-105253676D02*
X182319524Y-105348914D01*
X182319524Y-105348914D02*
X182224286Y-105396533D01*
D11*
X246530000Y-144920000D02*
X246530000Y-149530000D01*
X243820000Y-144920000D02*
X246530000Y-144920000D01*
X238820000Y-144920000D02*
X241620000Y-144920000D01*
X233920000Y-144920000D02*
X236620000Y-144920000D01*
X233920000Y-149530000D02*
X233920000Y-144920000D01*
X246530000Y-153930000D02*
X246530000Y-158540000D01*
X243570000Y-158540000D02*
X246530000Y-158540000D01*
X241070000Y-158540000D02*
X241870000Y-158540000D01*
X238770000Y-158540000D02*
X239370000Y-158540000D01*
X236670000Y-158540000D02*
X233910000Y-158540000D01*
X233910000Y-158540000D02*
X233910000Y-153930000D01*
D10*
X248290000Y-129540000D02*
X230510000Y-129540000D01*
X248290000Y-99060000D02*
X248290000Y-129540000D01*
X243210000Y-99060000D02*
X248290000Y-99060000D01*
X243210000Y-96520000D02*
X243210000Y-99060000D01*
X235590000Y-96520000D02*
X243210000Y-96520000D01*
X235590000Y-99060000D02*
X235590000Y-96520000D01*
X230510000Y-99060000D02*
X235590000Y-99060000D01*
X230510000Y-99060000D02*
X230510000Y-129540000D01*
D11*
X155975000Y-144645000D02*
X169945000Y-144645000D01*
X155975000Y-158615000D02*
X155975000Y-144645000D01*
X169945000Y-144645000D02*
X169945000Y-158615000D01*
X169945000Y-158615000D02*
X155975000Y-158615000D01*
X155975000Y-106545000D02*
X169945000Y-106545000D01*
X155975000Y-120515000D02*
X155975000Y-106545000D01*
X169945000Y-106545000D02*
X169945000Y-120515000D01*
X169945000Y-120515000D02*
X155975000Y-120515000D01*
X213125000Y-125595000D02*
X227095000Y-125595000D01*
X213125000Y-139565000D02*
X213125000Y-125595000D01*
X227095000Y-125595000D02*
X227095000Y-139565000D01*
X227095000Y-139565000D02*
X213125000Y-139565000D01*
X213125000Y-106545000D02*
X227095000Y-106545000D01*
X213125000Y-120515000D02*
X213125000Y-106545000D01*
X227095000Y-106545000D02*
X227095000Y-120515000D01*
X227095000Y-120515000D02*
X213125000Y-120515000D01*
X175025000Y-125595000D02*
X188995000Y-125595000D01*
X175025000Y-139565000D02*
X175025000Y-125595000D01*
X188995000Y-125595000D02*
X188995000Y-139565000D01*
X188995000Y-139565000D02*
X175025000Y-139565000D01*
X194075000Y-106545000D02*
X208045000Y-106545000D01*
X194075000Y-120515000D02*
X194075000Y-106545000D01*
X208045000Y-106545000D02*
X208045000Y-120515000D01*
X208045000Y-120515000D02*
X194075000Y-120515000D01*
X213125000Y-144645000D02*
X227095000Y-144645000D01*
X213125000Y-158615000D02*
X213125000Y-144645000D01*
X227095000Y-144645000D02*
X227095000Y-158615000D01*
X227095000Y-158615000D02*
X213125000Y-158615000D01*
X175025000Y-144645000D02*
X188995000Y-144645000D01*
X175025000Y-158615000D02*
X175025000Y-144645000D01*
X188995000Y-144645000D02*
X188995000Y-158615000D01*
X188995000Y-158615000D02*
X175025000Y-158615000D01*
X194075000Y-125595000D02*
X208045000Y-125595000D01*
X194075000Y-139565000D02*
X194075000Y-125595000D01*
X208045000Y-125595000D02*
X208045000Y-139565000D01*
X208045000Y-139565000D02*
X194075000Y-139565000D01*
X194075000Y-144645000D02*
X208045000Y-144645000D01*
X194075000Y-158615000D02*
X194075000Y-144645000D01*
X208045000Y-144645000D02*
X208045000Y-158615000D01*
X208045000Y-158615000D02*
X194075000Y-158615000D01*
X155975000Y-125595000D02*
X169945000Y-125595000D01*
X155975000Y-139565000D02*
X155975000Y-125595000D01*
X169945000Y-125595000D02*
X169945000Y-139565000D01*
X169945000Y-139565000D02*
X155975000Y-139565000D01*
X175025000Y-106545000D02*
X188995000Y-106545000D01*
X175025000Y-120515000D02*
X175025000Y-106545000D01*
X188995000Y-106545000D02*
X188995000Y-120515000D01*
X188995000Y-120515000D02*
X175025000Y-120515000D01*
M02*
