M48
; DRILL file {KiCad 7.0.10} date Fri Feb  9 18:03:16 2024
; FORMAT={-:-/ absolute / inch / decimal}
; #@! TF.CreationDate,2024-02-09T18:03:16-08:00
; #@! TF.GenerationSoftware,Kicad,Pcbnew,7.0.10
; #@! TF.FileFunction,Plated,1,2,PTH
FMAT,2
INCH
; #@! TA.AperFunction,Plated,PTH,ComponentDrill
T1C0.0354
; #@! TA.AperFunction,Plated,PTH,ComponentDrill
T2C0.0394
; #@! TA.AperFunction,Plated,PTH,ComponentDrill
T3C0.0433
; #@! TA.AperFunction,Plated,PTH,ComponentDrill
T4C0.0591
; #@! TA.AperFunction,Plated,PTH,ComponentDrill
T5C0.0787
%
G90
G05
T1
X6.3106Y-4.651
X6.3185Y-5.4055
X6.3185Y-6.1535
X6.6106Y-4.651
X6.6185Y-5.4055
X6.6185Y-6.1535
X7.057Y-4.649
X7.0705Y-5.4055
X7.0705Y-6.1535
X7.357Y-4.649
X7.3705Y-5.4055
X7.3705Y-6.1535
X7.8185Y-5.4055
X7.8185Y-6.1535
X7.825Y-4.65
X8.1185Y-5.4055
X8.1185Y-6.1535
X8.125Y-4.65
X8.5705Y-5.4055
X8.5705Y-6.1535
X8.571Y-4.655
X8.8705Y-5.4055
X8.8705Y-6.1535
X8.871Y-4.655
X9.061Y-5.5571
X9.4038Y-5.5571
T2
X9.3591Y-5.698
X9.3591Y-6.2689
X9.4575Y-6.2689
X9.5559Y-5.698
X9.5559Y-6.2689
T3
X9.1252Y-3.95
X9.1252Y-4.05
X9.1252Y-4.15
X9.1252Y-4.25
X9.1252Y-4.35
X9.1252Y-4.45
X9.1252Y-4.55
X9.1252Y-4.65
X9.1252Y-4.75
X9.1252Y-4.85
X9.1252Y-4.95
X9.1252Y-5.05
X9.7252Y-3.95
X9.7252Y-4.05
X9.7252Y-4.15
X9.7252Y-4.25
X9.7252Y-4.35
X9.7252Y-4.45
X9.7252Y-4.55
X9.7252Y-4.65
X9.7252Y-4.75
X9.7252Y-4.85
X9.7252Y-4.95
X9.7252Y-5.05
T4
X6.2657Y-4.3697
X6.2657Y-5.1197
X6.2657Y-5.8697
X6.5157Y-4.2697
X6.5157Y-5.0197
X6.5157Y-5.7697
X7.0157Y-4.3697
X7.0157Y-5.1197
X7.0157Y-5.8697
X7.2657Y-4.2697
X7.2657Y-5.0197
X7.2657Y-5.7697
X7.7657Y-4.3697
X7.7657Y-5.1197
X7.7657Y-5.8697
X8.0157Y-4.2697
X8.0157Y-5.0197
X8.0157Y-5.7697
X8.5157Y-4.3697
X8.5157Y-5.1197
X8.5157Y-5.8697
X8.7657Y-4.2697
X8.7657Y-5.0197
X8.7657Y-5.7697
T5
G00X9.237Y-5.9953
M15
G01X9.237Y-5.952
M16
G05
G00X9.678Y-5.9953
M15
G01X9.678Y-5.952
M16
G05
M30
