M48
; DRILL file {KiCad 7.0.10} date Fri Feb  9 18:03:16 2024
; FORMAT={-:-/ absolute / inch / decimal}
; #@! TF.CreationDate,2024-02-09T18:03:16-08:00
; #@! TF.GenerationSoftware,Kicad,Pcbnew,7.0.10
; #@! TF.FileFunction,NonPlated,1,2,NPTH
FMAT,2
INCH
; #@! TA.AperFunction,NonPlated,NPTH,ComponentDrill
T1C0.0669
; #@! TA.AperFunction,NonPlated,NPTH,ComponentDrill
T2C0.1260
; #@! TA.AperFunction,NonPlated,NPTH,ComponentDrill
T3C0.1575
%
G90
G05
T1
X6.2157Y-4.4697
X6.2157Y-5.2197
X6.2157Y-5.9697
X6.6157Y-4.4697
X6.6157Y-5.2197
X6.6157Y-5.9697
X6.9657Y-4.4697
X6.9657Y-5.2197
X6.9657Y-5.9697
X7.3657Y-4.4697
X7.3657Y-5.2197
X7.3657Y-5.9697
X7.7157Y-4.4697
X7.7157Y-5.2197
X7.7157Y-5.9697
X8.1157Y-4.4697
X8.1157Y-5.2197
X8.1157Y-5.9697
X8.4657Y-4.4697
X8.4657Y-5.2197
X8.4657Y-5.9697
X8.8657Y-4.4697
X8.8657Y-5.2197
X8.8657Y-5.9697
T2
X5.9409Y-3.9921
X5.9409Y-6.4488
X9.8937Y-3.9921
X9.8937Y-6.4488
T3
X6.4157Y-4.4697
X6.4157Y-5.2197
X6.4157Y-5.9697
X7.1657Y-4.4697
X7.1657Y-5.2197
X7.1657Y-5.9697
X7.9157Y-4.4697
X7.9157Y-5.2197
X7.9157Y-5.9697
X8.6657Y-4.4697
X8.6657Y-5.2197
X8.6657Y-5.9697
M30
