G04 #@! TF.GenerationSoftware,KiCad,Pcbnew,7.0.10*
G04 #@! TF.CreationDate,2024-02-09T18:03:28-08:00*
G04 #@! TF.ProjectId,4x3,3478332e-6b69-4636-9164-5f7063625858,rev?*
G04 #@! TF.SameCoordinates,Original*
G04 #@! TF.FileFunction,Copper,L2,Bot*
G04 #@! TF.FilePolarity,Positive*
%FSLAX46Y46*%
G04 Gerber Fmt 4.6, Leading zero omitted, Abs format (unit mm)*
G04 Created by KiCad (PCBNEW 7.0.10) date 2024-02-09 18:03:28*
%MOMM*%
%LPD*%
G01*
G04 APERTURE LIST*
G04 Aperture macros list*
%AMRoundRect*
0 Rectangle with rounded corners*
0 $1 Rounding radius*
0 $2 $3 $4 $5 $6 $7 $8 $9 X,Y pos of 4 corners*
0 Add a 4 corners polygon primitive as box body*
4,1,4,$2,$3,$4,$5,$6,$7,$8,$9,$2,$3,0*
0 Add four circle primitives for the rounded corners*
1,1,$1+$1,$2,$3*
1,1,$1+$1,$4,$5*
1,1,$1+$1,$6,$7*
1,1,$1+$1,$8,$9*
0 Add four rect primitives between the rounded corners*
20,1,$1+$1,$2,$3,$4,$5,0*
20,1,$1+$1,$4,$5,$6,$7,0*
20,1,$1+$1,$6,$7,$8,$9,0*
20,1,$1+$1,$8,$9,$2,$3,0*%
%AMRotRect*
0 Rectangle, with rotation*
0 The origin of the aperture is its center*
0 $1 length*
0 $2 width*
0 $3 Rotation angle, in degrees counterclockwise*
0 Add horizontal line*
21,1,$1,$2,0,0,$3*%
G04 Aperture macros list end*
G04 #@! TA.AperFunction,ComponentPad*
%ADD10R,1.150000X2.000000*%
G04 #@! TD*
G04 #@! TA.AperFunction,ComponentPad*
%ADD11O,1.500000X2.000000*%
G04 #@! TD*
G04 #@! TA.AperFunction,ComponentPad*
%ADD12O,3.000000X4.100000*%
G04 #@! TD*
G04 #@! TA.AperFunction,ComponentPad*
%ADD13C,1.600000*%
G04 #@! TD*
G04 #@! TA.AperFunction,ComponentPad*
%ADD14RoundRect,0.250000X0.550000X-0.550000X0.550000X0.550000X-0.550000X0.550000X-0.550000X-0.550000X0*%
G04 #@! TD*
G04 #@! TA.AperFunction,ComponentPad*
%ADD15R,1.600000X1.600000*%
G04 #@! TD*
G04 #@! TA.AperFunction,ComponentPad*
%ADD16C,2.200000*%
G04 #@! TD*
G04 #@! TA.AperFunction,ComponentPad*
%ADD17R,1.800000X1.800000*%
G04 #@! TD*
G04 #@! TA.AperFunction,ComponentPad*
%ADD18O,1.800000X1.800000*%
G04 #@! TD*
G04 #@! TA.AperFunction,ComponentPad*
%ADD19RotRect,1.800000X1.800000X179.000000*%
G04 #@! TD*
G04 #@! TA.AperFunction,Conductor*
%ADD20C,0.750000*%
G04 #@! TD*
G04 #@! TA.AperFunction,Conductor*
%ADD21C,0.250000*%
G04 #@! TD*
G04 APERTURE END LIST*
D10*
X230150000Y-141150000D03*
D11*
X238857500Y-141150000D03*
D12*
X245820000Y-151730000D03*
X234620000Y-151730000D03*
D13*
X242720000Y-144730000D03*
X237720000Y-144730000D03*
X240220000Y-159230000D03*
X242720000Y-159230000D03*
D14*
X237720000Y-159230000D03*
D13*
X247020000Y-100330000D03*
X247020000Y-102870000D03*
X247020000Y-105410000D03*
X247020000Y-107950000D03*
X247020000Y-110490000D03*
X247020000Y-113030000D03*
X247020000Y-115570000D03*
X247020000Y-118110000D03*
X247020000Y-120650000D03*
X247020000Y-123190000D03*
X247020000Y-125730000D03*
X247020000Y-128270000D03*
X231780000Y-128270000D03*
X231780000Y-125730000D03*
X231780000Y-123190000D03*
X231780000Y-120650000D03*
X231780000Y-118110000D03*
X231780000Y-115570000D03*
X231780000Y-113030000D03*
X231780000Y-110490000D03*
X231780000Y-107950000D03*
X231780000Y-105410000D03*
X231780000Y-102870000D03*
D15*
X231780000Y-100330000D03*
D16*
X165500000Y-146550000D03*
X159150000Y-149090000D03*
D17*
X225310000Y-156300000D03*
D18*
X217690000Y-156300000D03*
D19*
X206210000Y-156300000D03*
D18*
X198590000Y-156300000D03*
D17*
X187210000Y-156300000D03*
D18*
X179590000Y-156300000D03*
D17*
X168110000Y-156300000D03*
D18*
X160490000Y-156300000D03*
D17*
X225310000Y-137300000D03*
D18*
X217690000Y-137300000D03*
D17*
X206210000Y-137300000D03*
D18*
X198590000Y-137300000D03*
D17*
X187210000Y-137300000D03*
D18*
X179590000Y-137300000D03*
D17*
X168110000Y-137300000D03*
D18*
X160490000Y-137300000D03*
D16*
X165500000Y-108450000D03*
X159150000Y-110990000D03*
X222650000Y-127500000D03*
X216300000Y-130040000D03*
X222650000Y-108450000D03*
X216300000Y-110990000D03*
X184550000Y-127500000D03*
X178200000Y-130040000D03*
X203600000Y-108450000D03*
X197250000Y-110990000D03*
X222650000Y-146550000D03*
X216300000Y-149090000D03*
X184550000Y-146550000D03*
X178200000Y-149090000D03*
D17*
X225323400Y-118237000D03*
D18*
X217703400Y-118237000D03*
D17*
X167910000Y-118135400D03*
D18*
X160290000Y-118135400D03*
D17*
X186867800Y-118084600D03*
D18*
X179247800Y-118084600D03*
D17*
X206375000Y-118110000D03*
D18*
X198755000Y-118110000D03*
D16*
X203600000Y-127500000D03*
X197250000Y-130040000D03*
X203600000Y-146550000D03*
X197250000Y-149090000D03*
X165500000Y-127500000D03*
X159150000Y-130040000D03*
X184550000Y-108450000D03*
X178200000Y-110990000D03*
D20*
X230150000Y-141150000D02*
X230100000Y-141150000D01*
X242720000Y-122410000D02*
X247020000Y-118110000D01*
X242720000Y-144730000D02*
X242720000Y-122410000D01*
X238857500Y-143592500D02*
X238857500Y-141150000D01*
X237720000Y-144730000D02*
X238857500Y-143592500D01*
X230100000Y-159000000D02*
X230100000Y-141150000D01*
X230100000Y-141150000D02*
X230100000Y-129950000D01*
X235890000Y-143610000D02*
X235880000Y-143620000D01*
X235890000Y-142990000D02*
X235890000Y-143610000D01*
X234930000Y-123800000D02*
X231780000Y-120650000D01*
X234930000Y-148510000D02*
X234930000Y-123800000D01*
X236695000Y-153139493D02*
X236695000Y-150275000D01*
X235740000Y-154094493D02*
X236695000Y-153139493D01*
X236695000Y-150275000D02*
X234930000Y-148510000D01*
X236400000Y-161200000D02*
X235740000Y-160540000D01*
X235740000Y-160540000D02*
X235740000Y-154094493D01*
X242720000Y-160510000D02*
X242030000Y-161200000D01*
X242720000Y-159230000D02*
X242720000Y-160510000D01*
X242030000Y-161200000D02*
X236400000Y-161200000D01*
X237720000Y-124050000D02*
X231780000Y-118110000D01*
X236190000Y-146280000D02*
X235880000Y-145970000D01*
X237520000Y-142840000D02*
X237520000Y-123630000D01*
X237720000Y-146280000D02*
X236190000Y-146280000D01*
X235880000Y-145970000D02*
X235880000Y-143620000D01*
X237370000Y-142990000D02*
X237520000Y-142840000D01*
X237720000Y-159230000D02*
X237720000Y-146280000D01*
X235890000Y-142990000D02*
X237370000Y-142990000D01*
X240220000Y-159230000D02*
X240220000Y-116390000D01*
X240220000Y-116390000D02*
X231780000Y-107950000D01*
X230100000Y-129950000D02*
X231780000Y-128270000D01*
X225300000Y-160100000D02*
X229000000Y-160100000D01*
X229000000Y-160100000D02*
X230100000Y-159000000D01*
X230030000Y-125730000D02*
X231780000Y-125730000D01*
X229000000Y-126760000D02*
X230030000Y-125730000D01*
X229000000Y-140000000D02*
X229000000Y-126760000D01*
X225400000Y-140700000D02*
X228300000Y-140700000D01*
X228300000Y-140700000D02*
X229000000Y-140000000D01*
X227600000Y-121100000D02*
X229690000Y-123190000D01*
X229690000Y-123190000D02*
X231780000Y-123190000D01*
X225323400Y-121100000D02*
X227600000Y-121100000D01*
X187210000Y-160010000D02*
X187300000Y-160100000D01*
X187210000Y-156300000D02*
X187210000Y-160010000D01*
X187300000Y-160100000D02*
X206200000Y-160100000D01*
X168200000Y-160100000D02*
X187300000Y-160100000D01*
X206210000Y-160090000D02*
X206200000Y-160100000D01*
X206200000Y-160100000D02*
X225300000Y-160100000D01*
X206210000Y-156300000D02*
X206210000Y-160090000D01*
X225310000Y-160090000D02*
X225300000Y-160100000D01*
X225310000Y-156300000D02*
X225310000Y-160090000D01*
X168110000Y-160010000D02*
X168200000Y-160100000D01*
X168110000Y-156300000D02*
X168110000Y-160010000D01*
X216790000Y-149580000D02*
X216300000Y-149090000D01*
X216790000Y-155400000D02*
X216790000Y-149580000D01*
X217690000Y-156300000D02*
X216790000Y-155400000D01*
X197690000Y-149530000D02*
X197250000Y-149090000D01*
X197690000Y-155400000D02*
X197690000Y-149530000D01*
X198590000Y-156300000D02*
X197690000Y-155400000D01*
X178690000Y-149580000D02*
X178200000Y-149090000D01*
X178690000Y-155400000D02*
X178690000Y-149580000D01*
X179590000Y-156300000D02*
X178690000Y-155400000D01*
X159355000Y-149295000D02*
X159150000Y-149090000D01*
X159355000Y-155165000D02*
X159355000Y-149295000D01*
X160490000Y-156300000D02*
X159355000Y-155165000D01*
X225310000Y-140610000D02*
X225400000Y-140700000D01*
X225310000Y-137300000D02*
X225310000Y-140610000D01*
X206200000Y-140700000D02*
X225400000Y-140700000D01*
X206210000Y-140690000D02*
X206200000Y-140700000D01*
X206210000Y-137300000D02*
X206210000Y-140690000D01*
X187200000Y-140700000D02*
X206200000Y-140700000D01*
X187210000Y-140690000D02*
X187200000Y-140700000D01*
X187210000Y-137300000D02*
X187210000Y-140690000D01*
X168200000Y-140700000D02*
X187200000Y-140700000D01*
X168110000Y-140610000D02*
X168200000Y-140700000D01*
X168110000Y-137300000D02*
X168110000Y-140610000D01*
X216790000Y-130530000D02*
X216300000Y-130040000D01*
X216790000Y-136400000D02*
X216790000Y-130530000D01*
X217690000Y-137300000D02*
X216790000Y-136400000D01*
X197690000Y-136400000D02*
X197690000Y-130480000D01*
X198590000Y-137300000D02*
X197690000Y-136400000D01*
X197690000Y-130480000D02*
X197250000Y-130040000D01*
X178405000Y-130245000D02*
X178200000Y-130040000D01*
X178405000Y-136115000D02*
X178405000Y-130245000D01*
X179590000Y-137300000D02*
X178405000Y-136115000D01*
X159590000Y-136400000D02*
X159590000Y-130480000D01*
X160490000Y-137300000D02*
X159590000Y-136400000D01*
X159590000Y-130480000D02*
X159150000Y-130040000D01*
X187200000Y-121100000D02*
X197700000Y-121100000D01*
X206375000Y-121074600D02*
X206400400Y-121100000D01*
X186867800Y-121067800D02*
X186900000Y-121100000D01*
X186900000Y-121100000D02*
X187200000Y-121100000D01*
D21*
X186910000Y-121090000D02*
X186900000Y-121100000D01*
D20*
X186867800Y-118084600D02*
X186867800Y-121067800D01*
X225323400Y-118237000D02*
X225323400Y-121100000D01*
X167910000Y-121090000D02*
X167900000Y-121100000D01*
X167910000Y-118135400D02*
X167910000Y-121090000D01*
X206400400Y-121100000D02*
X216900000Y-121100000D01*
X206375000Y-118110000D02*
X206375000Y-121074600D01*
X197700000Y-121100000D02*
X206400400Y-121100000D01*
X167900000Y-121100000D02*
X186900000Y-121100000D01*
X216900000Y-121100000D02*
X225323400Y-121100000D01*
X160290000Y-112130000D02*
X159150000Y-110990000D01*
X160290000Y-117700000D02*
X160290000Y-112130000D01*
X179290000Y-117800000D02*
X179290000Y-112080000D01*
X179290000Y-112080000D02*
X178200000Y-110990000D01*
X198755000Y-118110000D02*
X197855000Y-117210000D01*
X197855000Y-117210000D02*
X197855000Y-111595000D01*
X197855000Y-111595000D02*
X197250000Y-110990000D01*
X216803400Y-117337000D02*
X216803400Y-111493400D01*
X217703400Y-118237000D02*
X216803400Y-117337000D01*
X216803400Y-111493400D02*
X216300000Y-110990000D01*
M02*
